<svg width="164" height="41" viewBox="0 0 164 41" fill="none" xmlns="http://www.w3.org/2000/svg">
<path d="M13.5696 0.251733C13.2819 0.395581 12.9703 0.635327 12.8624 0.791162L12.6826 1.07886H8.09143C1.69021 1.07886 2.22964 0.671289 0.899047 6.52109C0.407568 8.69079 0 10.7286 0 11.0523C0 12.0472 0.239746 12.3829 2.57727 14.7444L4.79492 16.974V23.4951C4.79492 29.7405 4.80691 30.0282 5.03467 30.4957C5.35832 31.179 14.0491 39.8458 14.6485 40.0975C15.0321 40.2534 15.8232 40.2773 19.7431 40.2773C24.2263 40.2773 24.3942 40.2653 24.9096 40.0256C25.2213 39.8698 25.5569 39.5701 25.7487 39.2824L26.0724 38.7909L26.1083 34.3196C26.1203 31.8622 26.1803 29.8484 26.2282 29.8484C26.2762 29.8484 27.9064 31.4307 29.8484 33.3726C32.0301 35.5423 33.7562 37.1606 34.3436 37.5802C36.1657 38.8748 38.6111 39.9177 40.8767 40.3373C42.2672 40.601 45.5517 40.6969 47.0981 40.5291C50.035 40.2054 52.7681 39.1026 54.9258 37.3644L55.645 36.777L57.1674 38.2874C58.1384 39.2344 58.8816 39.8698 59.2173 40.0256C59.7327 40.2653 59.9964 40.2773 64.4797 40.2773C69.0588 40.2773 69.2267 40.2653 69.7421 40.0256C70.0538 39.8698 70.3894 39.5701 70.5812 39.2824C70.8929 38.8149 70.9049 38.743 70.9408 36.7411L70.9768 34.6793L72.1156 34.6073C72.7389 34.5594 73.578 34.4395 73.9976 34.3316C75.0645 34.0559 76.6108 33.3127 77.5818 32.5935L78.4089 31.9701L81.0701 34.6073C84.4745 37.9638 85.7691 38.8748 88.5622 39.8458C90.2883 40.4451 91.4751 40.6489 93.7407 40.7209C96.0542 40.7928 97.7085 40.601 99.5185 40.0376L100.669 39.678L101.293 40.0616C101.808 40.3732 102.072 40.4571 102.731 40.4931C103.187 40.5171 103.75 40.4811 103.99 40.3972C104.278 40.3013 105.296 39.4622 106.939 37.9758L109.456 35.6982L110.619 36.825C113.688 39.7978 116.493 40.7808 121.491 40.601C124.932 40.4691 127.137 39.8098 129.475 38.1795L130.386 37.5442L131.453 38.6111C132.064 39.2344 132.771 39.8098 133.107 39.9776L133.706 40.2773H160.078L160.606 40.0256C160.894 39.8817 161.253 39.5821 161.409 39.3303C161.793 38.7669 163.866 30.8433 163.866 29.9682C163.866 28.9733 163.627 28.6017 161.637 26.5998L159.779 24.7298L161.888 18.7122C164.178 12.1311 164.25 11.8794 163.746 10.8605C163.423 10.1772 154.732 1.5104 154.133 1.25867C153.737 1.10283 152.586 1.07886 145.31 1.07886H136.931L136.368 1.37854L135.816 1.66623L135.265 1.37854L134.701 1.07886H129.954C126.358 1.09084 125.123 1.12681 124.848 1.24668C124.548 1.36655 124.416 1.36655 124.104 1.23469C123.805 1.11482 122.666 1.07886 119.01 1.07886C114.455 1.07886 114.299 1.09084 113.783 1.33059C113.436 1.49841 113.136 1.77412 112.92 2.10976L112.597 2.62522L112.069 2.08579C111.062 1.05488 111.206 1.07886 105.824 1.07886C101.101 1.07886 101.089 1.07886 100.561 1.35456C99.7823 1.77412 99.4466 2.40945 99.0031 4.37536C98.7873 5.29839 98.5955 6.07756 98.5716 6.10154C98.5596 6.12551 98.0082 5.64602 97.3728 5.02268C94.9634 2.68515 92.1104 1.24668 88.9577 0.779174C87.4354 0.539428 84.4505 0.551416 82.8442 0.791162C79.296 1.30662 75.5799 3.34446 73.4222 5.96967L72.8348 6.7009L71.2645 5.16653C69.0468 3.00881 67.7882 2.20566 65.3907 1.47444L64.3119 1.15078L57.7788 1.10283L51.2457 1.06687L50.7063 1.35456C49.9031 1.77412 49.5795 2.39746 49.1239 4.39934L48.7404 6.08955L47.6016 5.01069C45.1202 2.66118 42.2912 1.23469 39.1985 0.767187C37.8679 0.57539 34.883 0.551416 33.4685 0.719238C31.3947 0.982959 29.1411 1.75015 27.4269 2.76907L26.5878 3.26055L25.1254 1.81008C24.2983 0.994946 23.4711 0.287695 23.2194 0.179809C22.8598 0.0359619 22.0686 0 18.4365 0C14.2289 0 14.0731 0.0119873 13.5696 0.251733Z" fill="white"/>
<path d="M13.5696 0.251733C13.2819 0.395581 12.9703 0.635327 12.8624 0.791162L12.6826 1.07886H8.09143C1.69021 1.07886 2.22964 0.671289 0.899047 6.52109C0.407568 8.69079 0 10.7286 0 11.0523C0 12.0472 0.239746 12.3829 2.57727 14.7444L4.79492 16.974V23.4951C4.79492 29.7405 4.80691 30.0282 5.03467 30.4957C5.35832 31.179 14.0491 39.8458 14.6485 40.0975C15.0321 40.2534 15.8232 40.2773 19.7431 40.2773C24.2263 40.2773 24.3942 40.2653 24.9096 40.0256C25.2213 39.8698 25.5569 39.5701 25.7487 39.2824L26.0724 38.7909L26.1083 34.3196C26.1203 31.8622 26.1803 29.8484 26.2282 29.8484C26.2762 29.8484 27.9064 31.4307 29.8484 33.3726C32.0301 35.5423 33.7562 37.1606 34.3436 37.5802C36.1657 38.8748 38.6111 39.9177 40.8767 40.3373C42.2672 40.601 45.5517 40.6969 47.0981 40.5291C50.035 40.2054 52.7681 39.1026 54.9258 37.3644L55.645 36.777L57.1674 38.2874C58.1384 39.2344 58.8816 39.8698 59.2173 40.0256C59.7327 40.2653 59.9964 40.2773 64.4797 40.2773C69.0588 40.2773 69.2267 40.2653 69.7421 40.0256C70.0538 39.8698 70.3894 39.5701 70.5812 39.2824C70.8929 38.8149 70.9049 38.743 70.9408 36.7411L70.9768 34.6793L72.1156 34.6073C72.7389 34.5594 73.578 34.4395 73.9976 34.3316C75.0645 34.0559 76.6108 33.3127 77.5818 32.5935L78.4089 31.9701L81.0701 34.6073C84.4745 37.9638 85.7691 38.8748 88.5622 39.8458C90.2883 40.4451 91.4751 40.6489 93.7407 40.7209C96.0542 40.7928 97.7085 40.601 99.5185 40.0376L100.669 39.678L101.293 40.0616C101.808 40.3732 102.072 40.4571 102.731 40.4931C103.187 40.5171 103.75 40.4811 103.99 40.3972C104.278 40.3013 105.296 39.4622 106.939 37.9758L109.456 35.6982L110.619 36.825C113.688 39.7978 116.493 40.7808 121.491 40.601C124.932 40.4691 127.137 39.8098 129.475 38.1795L130.386 37.5442L131.453 38.6111C132.064 39.2344 132.771 39.8098 133.107 39.9776L133.706 40.2773H160.078L160.606 40.0256C160.894 39.8817 161.253 39.5821 161.409 39.3303C161.793 38.7669 163.866 30.8433 163.866 29.9682C163.866 28.9733 163.627 28.6017 161.637 26.5998L159.779 24.7298L161.888 18.7122C164.178 12.1311 164.25 11.8794 163.746 10.8605C163.423 10.1772 154.732 1.5104 154.133 1.25867C153.737 1.10283 152.586 1.07886 145.31 1.07886H136.931L136.368 1.37854L135.816 1.66623L135.265 1.37854L134.701 1.07886H129.954C126.358 1.09084 125.123 1.12681 124.848 1.24668C124.548 1.36655 124.416 1.36655 124.104 1.23469C123.805 1.11482 122.666 1.07886 119.01 1.07886C114.455 1.07886 114.299 1.09084 113.783 1.33059C113.436 1.49841 113.136 1.77412 112.92 2.10976L112.597 2.62522L112.069 2.08579C111.062 1.05488 111.206 1.07886 105.824 1.07886C101.101 1.07886 101.089 1.07886 100.561 1.35456C99.7823 1.77412 99.4466 2.40945 99.0031 4.37536C98.7873 5.29839 98.5955 6.07756 98.5716 6.10154C98.5596 6.12551 98.0082 5.64602 97.3728 5.02268C94.9634 2.68515 92.1104 1.24668 88.9577 0.779174C87.4354 0.539428 84.4505 0.551416 82.8442 0.791162C79.296 1.30662 75.5799 3.34446 73.4222 5.96967L72.8348 6.7009L71.2645 5.16653C69.0468 3.00881 67.7882 2.20566 65.3907 1.47444L64.3119 1.15078L57.7788 1.10283L51.2457 1.06687L50.7063 1.35456C49.9031 1.77412 49.5795 2.39746 49.1239 4.39934L48.7404 6.08955L47.6016 5.01069C45.1202 2.66118 42.2912 1.23469 39.1985 0.767187C37.8679 0.57539 34.883 0.551416 33.4685 0.719238C31.3947 0.982959 29.1411 1.75015 27.4269 2.76907L26.5878 3.26055L25.1254 1.81008C24.2983 0.994946 23.4711 0.287695 23.2194 0.179809C22.8598 0.0359619 22.0686 0 18.4365 0C14.2289 0 14.0731 0.0119873 13.5696 0.251733ZM22.1166 2.54131C22.0926 2.62522 21.6371 4.5312 21.0976 6.77282C20.5582 9.01445 20.1027 10.9444 20.0667 11.0523C20.0068 11.2441 19.791 11.2681 17.6093 11.2681H15.2239V29.3689H7.19238V23.6989C7.19238 20.5702 7.15642 16.4705 7.10847 14.5885L7.03654 11.1482H4.71101C3.44035 11.1482 2.39746 11.1122 2.39746 11.0523C2.40945 11.0043 2.79304 9.26618 3.27253 7.19238L4.13562 3.41638L9.31413 3.38042L14.4926 3.35644L14.7564 2.39746H18.4604C21.3734 2.39746 22.1525 2.43342 22.1166 2.54131ZM38.731 3.18862C41.5 3.66811 43.8136 4.87883 45.8514 6.91667C48.8363 9.90151 50.3227 14.0611 49.8672 18.1488C49.3877 22.3563 46.5227 26.3481 42.5549 28.338C40.6369 29.297 38.671 29.7285 36.2496 29.7285C31.9581 29.7285 28.6017 28.4459 25.8926 25.7727C23.8427 23.7349 22.7399 21.6251 22.2364 18.7361C22.0327 17.5494 21.9967 14.8762 22.1885 13.8333C22.4762 12.1671 23.3513 10.1892 24.4421 8.75073C25.1853 7.75578 26.9355 6.06557 27.8705 5.43025C29.4888 4.3394 31.5506 3.51228 33.4925 3.18862C34.8711 2.94888 37.3644 2.96086 38.731 3.18862ZM88.4543 3.17663C91.3672 3.65613 93.9205 5.04665 96.0662 7.31225C97.7324 9.08637 98.7753 10.9324 99.3507 13.0662C99.6025 14.0371 99.6504 14.4807 99.6624 16.003C99.6624 18.6762 99.2189 20.5942 98.0681 22.7159L97.6006 23.579L98.4876 24.3342C98.9791 24.7538 99.3627 25.1374 99.3507 25.1853C99.3028 25.3052 94.6637 29.5007 94.4959 29.5727C94.412 29.6086 94.0284 29.285 93.6208 28.8534L92.9016 28.0743L91.7148 28.6017C88.6581 29.9802 85.0139 30.232 81.7893 29.297C77.2941 28.0023 73.7459 24.4181 72.631 20.0548C71.8159 16.8422 72.1396 13.258 73.5301 10.369C75.0405 7.21635 78.1092 4.61511 81.4897 3.59619C83.4915 2.99682 86.2966 2.829 88.4543 3.17663ZM64.0122 3.71606C65.6664 4.05171 67.0929 4.79492 68.3156 5.9457C70.2576 7.76777 71.1446 9.63779 71.4443 12.5387C71.9478 17.3216 69.2986 21.9008 65.1869 23.3393C64.4078 23.615 64.0841 23.6629 62.1901 23.7109L60.0564 23.7588V29.3689H51.905V11.1482H51.006C50.5145 11.1482 50.1069 11.1362 50.1069 11.1122C50.1069 11.0283 51.7971 3.76401 51.8451 3.62016C51.881 3.51228 53.1037 3.47632 57.3832 3.47632C62.3579 3.47632 62.9813 3.50029 64.0122 3.71606ZM109.924 11.8075C109.924 20.9538 109.888 20.5103 110.643 21.1456C111.77 22.0926 114.071 21.745 114.67 20.5342C114.886 20.1027 114.898 19.6232 114.934 11.7715L114.97 3.47632H123.122L123.086 12.6706C123.038 21.745 123.038 21.8888 122.774 22.8358C122.091 25.3052 120.508 27.2471 118.231 28.3979C116.433 29.3209 114.515 29.7285 112.045 29.7285C107.538 29.7285 104.266 27.8825 102.587 24.3942C101.808 22.7759 101.772 22.4163 101.772 16.4466V11.1482H100.873C100.382 11.1482 99.9741 11.1122 99.9741 11.0763C99.9741 10.9804 101.64 3.81196 101.712 3.62016C101.748 3.51228 102.683 3.47632 105.848 3.47632H109.924V11.8075ZM134.018 29.3689H125.867V11.1482H124.968C124.476 11.1482 124.069 11.1242 124.069 11.1002C124.069 11.0763 124.476 9.37407 124.968 7.33623C125.459 5.29839 125.867 3.59619 125.867 3.54824C125.867 3.51228 127.701 3.47632 129.942 3.47632H134.018V29.3689ZM153.042 3.62016C152.85 4.14761 146.844 21.3494 146.844 21.3973C146.844 21.4333 148.211 21.4573 149.889 21.4573H152.934L152.047 24.8976C151.555 26.8036 151.1 28.5777 151.028 28.8534L150.896 29.3689H143.164C135.852 29.3689 135.432 29.3569 135.516 29.1531C135.828 28.3619 141.69 11.4838 141.69 11.3879C141.69 11.316 140.611 11.2681 138.645 11.2681H135.6L136.128 9.2542C136.415 8.15136 136.883 6.40122 137.147 5.35832L137.65 3.47632H145.37C151.507 3.47632 153.09 3.51228 153.042 3.62016Z" fill="black"/>
<path d="M35.1228 11.2681C32.7853 11.6876 31.167 13.246 30.7834 15.4636C30.4118 17.6453 31.5386 19.9469 33.4685 20.8819C34.4035 21.3374 35.2187 21.4932 36.4294 21.4333C38.3234 21.3494 39.7738 20.4024 40.613 18.7242C41.0565 17.8251 41.0565 17.8011 41.0565 16.3746C41.0565 14.9961 41.0325 14.8882 40.6729 14.121C39.642 11.9513 37.5083 10.8485 35.1228 11.2681Z" fill="black"/>
<path d="M84.7981 11.328C82.0411 11.9274 80.0871 14.6125 80.5427 17.1658C80.8303 18.8201 81.9931 20.3664 83.4676 21.0977C84.2827 21.4932 85.7212 21.745 86.3925 21.6251L86.812 21.5412L86.0688 20.798L85.3376 20.0548L85.865 19.5873C86.1527 19.3355 87.1836 18.4005 88.1546 17.5135L89.9167 15.9072L90.588 16.5545L91.2473 17.2018L91.1874 16.1229C91.1035 14.5766 90.7798 13.7974 89.8328 12.8504C89.0057 12.0233 87.9868 11.4719 86.9199 11.2681C86.1048 11.1122 85.7092 11.1242 84.7981 11.328Z" fill="black"/>
<path d="M60.0564 16.063H61.0513C61.8185 16.063 62.1182 16.015 62.4179 15.8232C62.9333 15.5116 63.3169 14.7324 63.3888 13.8333C63.4368 13.222 63.3888 12.9822 63.1371 12.4308C62.7415 11.5558 62.4179 11.3879 61.0753 11.3879H60.0564V16.063Z" fill="black"/>
</svg>
